<svg width="132" height="30" viewBox="0 0 132 30" fill="none" xmlns="http://www.w3.org/2000/svg">
<path fill-rule="evenodd" clip-rule="evenodd" d="M11.789 12.1604C11.8568 11.991 11.991 11.8568 12.1604 11.789L15 10.6531L17.8396 11.789C18.009 11.8568 18.1432 11.991 18.211 12.1604L19.6774 15.8262L18.6831 18.3117C18.6153 18.4811 18.4811 18.6153 18.3117 18.6831L15 20.008L11.6883 18.6831C11.5189 18.6154 11.3846 18.4811 11.3169 18.3117L10.3226 15.8262L11.789 12.1604ZM10.3226 15.8262L7.54533 8.88396C7.44627 8.63636 7.5043 8.35356 7.69285 8.16501C7.88141 7.97646 8.1642 7.91843 8.41181 8.01748L15 10.6531L21.5882 8.01748C21.8358 7.91843 22.1186 7.97645 22.3071 8.16501C22.4957 8.35356 22.5537 8.63636 22.4547 8.88396L19.6774 15.8262L21.9825 21.5882C22.0816 21.8358 22.0235 22.1186 21.835 22.3071C21.6464 22.4957 21.3636 22.5537 21.116 22.4547L15 20.008L8.88396 22.4547C8.63635 22.5537 8.35356 22.4957 8.16501 22.3071C7.97645 22.1186 7.91842 21.8358 8.01748 21.5882L10.3226 15.8262ZM13.8249 16.6184L14.2735 15.2363L13.0977 14.3825L14.5508 14.3821L14.9994 13L15.4489 14.3818L16.9019 14.3814L15.7266 15.2359L16.176 16.6177L15.0002 15.7639L13.8249 16.6184Z" fill="#595CAE"/>
<path d="M31.9601 21.112C31.1814 21.112 30.4774 20.9787 29.8481 20.712C29.2294 20.4453 28.7387 20.0613 28.3761 19.56C28.0134 19.0587 27.8267 18.4667 27.8161 17.784H30.2161C30.2481 18.2427 30.4081 18.6053 30.6961 18.872C30.9947 19.1387 31.4001 19.272 31.9121 19.272C32.4347 19.272 32.8454 19.1493 33.1441 18.904C33.4427 18.648 33.5921 18.3173 33.5921 17.912C33.5921 17.5813 33.4907 17.3093 33.2881 17.096C33.0854 16.8827 32.8294 16.7173 32.5201 16.6C32.2214 16.472 31.8054 16.3333 31.2721 16.184C30.5467 15.9707 29.9547 15.7627 29.4961 15.56C29.0481 15.3467 28.6587 15.032 28.3281 14.616C28.0081 14.1893 27.8481 13.624 27.8481 12.92C27.8481 12.2587 28.0134 11.6827 28.3441 11.192C28.6747 10.7013 29.1387 10.328 29.7361 10.072C30.3334 9.80533 31.0161 9.672 31.7841 9.672C32.9361 9.672 33.8694 9.95467 34.5841 10.52C35.3094 11.0747 35.7094 11.8533 35.7841 12.856H33.3201C33.2987 12.472 33.1334 12.1573 32.8241 11.912C32.5254 11.656 32.1254 11.528 31.6241 11.528C31.1867 11.528 30.8347 11.64 30.5681 11.864C30.3121 12.088 30.1841 12.4133 30.1841 12.84C30.1841 13.1387 30.2801 13.3893 30.4721 13.592C30.6747 13.784 30.9201 13.944 31.2081 14.072C31.5067 14.1893 31.9227 14.328 32.4561 14.488C33.1814 14.7013 33.7734 14.9147 34.2321 15.128C34.6907 15.3413 35.0854 15.6613 35.4161 16.088C35.7467 16.5147 35.9121 17.0747 35.9121 17.768C35.9121 18.3653 35.7574 18.92 35.4481 19.432C35.1387 19.944 34.6854 20.3547 34.0881 20.664C33.4907 20.9627 32.7814 21.112 31.9601 21.112ZM47.9181 9.832V21H45.6781V16.248H40.8941V21H38.6541V9.832H40.8941V14.424H45.6781V9.832H47.9181ZM56.1068 21.112C55.0615 21.112 54.1015 20.8667 53.2268 20.376C52.3521 19.8853 51.6588 19.208 51.1468 18.344C50.6348 17.4693 50.3788 16.4827 50.3788 15.384C50.3788 14.296 50.6348 13.32 51.1468 12.456C51.6588 11.5813 52.3521 10.8987 53.2268 10.408C54.1015 9.91733 55.0615 9.672 56.1068 9.672C57.1628 9.672 58.1228 9.91733 58.9868 10.408C59.8615 10.8987 60.5495 11.5813 61.0508 12.456C61.5628 13.32 61.8188 14.296 61.8188 15.384C61.8188 16.4827 61.5628 17.4693 61.0508 18.344C60.5495 19.208 59.8615 19.8853 58.9868 20.376C58.1121 20.8667 57.1521 21.112 56.1068 21.112ZM56.1068 19.112C56.7788 19.112 57.3708 18.9627 57.8828 18.664C58.3948 18.3547 58.7948 17.9173 59.0828 17.352C59.3708 16.7867 59.5148 16.1307 59.5148 15.384C59.5148 14.6373 59.3708 13.9867 59.0828 13.432C58.7948 12.8667 58.3948 12.4347 57.8828 12.136C57.3708 11.8373 56.7788 11.688 56.1068 11.688C55.4348 11.688 54.8375 11.8373 54.3148 12.136C53.8028 12.4347 53.4028 12.8667 53.1148 13.432C52.8268 13.9867 52.6828 14.6373 52.6828 15.384C52.6828 16.1307 52.8268 16.7867 53.1148 17.352C53.4028 17.9173 53.8028 18.3547 54.3148 18.664C54.8375 18.9627 55.4348 19.112 56.1068 19.112ZM70.0453 21L67.5813 16.648H66.5253V21H64.2853V9.832H68.4773C69.3413 9.832 70.0773 9.98667 70.6853 10.296C71.2933 10.5947 71.7466 11.0053 72.0453 11.528C72.3546 12.04 72.5093 12.616 72.5093 13.256C72.5093 13.992 72.296 14.6587 71.8693 15.256C71.4426 15.8427 70.808 16.248 69.9653 16.472L72.6373 21H70.0453ZM66.5253 14.968H68.3973C69.0053 14.968 69.4586 14.824 69.7573 14.536C70.056 14.2373 70.2053 13.8267 70.2053 13.304C70.2053 12.792 70.056 12.3973 69.7573 12.12C69.4586 11.832 69.0053 11.688 68.3973 11.688H66.5253V14.968ZM82.9353 9.832V11.64H79.9593V21H77.7193V11.64H74.7433V9.832H82.9353ZM87.6097 11.64V14.44H91.3697V16.216H87.6097V19.176H91.8497V21H85.3697V9.816H91.8497V11.64H87.6097ZM104.237 21H101.997L96.9253 13.336V21H94.6853V9.816H96.9253L101.997 17.496V9.816H104.237V21ZM109.491 11.64V14.44H113.251V16.216H109.491V19.176H113.731V21H107.251V9.816H113.731V11.64H109.491ZM122.327 21L119.863 16.648H118.807V21H116.567V9.832H120.759C121.623 9.832 122.359 9.98667 122.967 10.296C123.575 10.5947 124.028 11.0053 124.327 11.528C124.636 12.04 124.791 12.616 124.791 13.256C124.791 13.992 124.577 14.6587 124.151 15.256C123.724 15.8427 123.089 16.248 122.247 16.472L124.919 21H122.327ZM118.807 14.968H120.679C121.287 14.968 121.74 14.824 122.039 14.536C122.337 14.2373 122.487 13.8267 122.487 13.304C122.487 12.792 122.337 12.3973 122.039 12.12C121.74 11.832 121.287 11.688 120.679 11.688H118.807V14.968Z" fill="#595CAE"/>
</svg>
